<svg xmlns="http://www.w3.org/2000/svg" xmlns:xlink="http://www.w3.org/1999/xlink" x="0px" y="0px" viewBox="0 0 100 100" style="enable-background:new 0 0 100 100;" fill="white" xml:space="preserve" width="100"  height="100" >	<style>		.bank-law-01 {fill:white;stroke:white;stroke-width:3;stroke-linecap:round;stroke-linejoin:round;}	</style>	<g>		<g>			<g>				<g>					<g>						<path class="bank-law-01" d="      M95.703,37.813C94.45,36.369,64.286,13.556,53.664,5.535c-2.175-1.641-5.153-1.641-7.324,0      C35.714,13.556,5.55,36.369,4.297,37.813" stroke="#000000" fill="none" stroke-width="3px"></path>						<path class="bank-law-01" d="      M50,34.766c3.365,0,6.094-2.728,6.094-6.094S53.365,22.578,50,22.578s-6.094,2.728-6.094,6.094S46.635,34.766,50,34.766z" stroke="#000000" fill="none" stroke-width="3px"></path>						<path class="bank-law-01" d="      M4.297,43.906h91.406" stroke="#000000" fill="none" stroke-width="3px"></path>						<path class="bank-law-01" d="      M10.391,43.906L13.438,50h12.188l3.047-6.094" stroke="#000000" fill="none" stroke-width="3px"></path>						<path class="bank-law-01" d="      M14.961,50v35.039h4.57" stroke="#000000" fill="none" stroke-width="3px"></path>						<path class="bank-law-01" d="      M24.101,50v35.039h-4.57" stroke="#000000" fill="none" stroke-width="3px"></path>						<path class="bank-law-01" d="      M40.859,43.906L43.906,50h12.188l3.047-6.094" stroke="#000000" fill="none" stroke-width="3px"></path>						<path class="bank-law-01" d="      M45.43,50v35.039H50" stroke="#000000" fill="none" stroke-width="3px"></path>						<path class="bank-law-01" d="      M54.57,50v35.039H50" stroke="#000000" fill="none" stroke-width="3px"></path>						<path class="bank-law-01" d="      M71.328,43.906L74.375,50h12.188l3.047-6.094" stroke="#000000" fill="none" stroke-width="3px"></path>						<path class="bank-law-01" d="      M75.899,50v35.039h4.57" stroke="#000000" fill="none" stroke-width="3px"></path>						<path class="bank-law-01" d="      M85.039,50v35.039h-4.57" stroke="#000000" fill="none" stroke-width="3px"></path>						<path class="bank-law-01" d="      M91.133,85.039H10.391" stroke="#000000" fill="none" stroke-width="3px"></path>						<path class="bank-law-01" d="      M97.226,91.133H2.773v6.094h94.453V91.133z" stroke="#000000" fill="none" stroke-width="3px"></path>						<path class="bank-law-01" d="      M83.516,37.813L51.862,13.354c-1.097-0.849-2.628-0.849-3.725,0L16.484,37.813" stroke="#000000" fill="none" stroke-width="3px"></path>					</g>				</g>			</g>		</g>	</g></svg>