<svg xmlns="http://www.w3.org/2000/svg" xmlns:xlink="http://www.w3.org/1999/xlink" x="0px" y="0px" viewBox="0 0 100 100" style="enable-background:new 0 0 100 100;" xml:space="preserve" width="100"  height="100" >	<style>		.family-law-01{fill:white;stroke:white;stroke-width:3;stroke-linecap:round;stroke-linejoin:round;}	</style>	<g>		<g>			<g>				<g>					<g>						<path class="family-law-01" d="      M96.742,57.539H3.258v10.555h93.484V57.539z" stroke="#000000" fill="none" stroke-width="3px"></path>						<path class="family-law-01" d="      M10.797,68.094v28.648" stroke="#000000" fill="none" stroke-width="3px"></path>						<path class="family-law-01" d="      M89.203,68.094v28.648" stroke="#000000" fill="none" stroke-width="3px"></path>						<path class="family-law-01" d="      M71.109,75.633H28.891v9.047h42.219V75.633z" stroke="#000000" fill="none" stroke-width="3px"></path>						<path class="family-law-01" d="      M39.445,39.445v13.57" stroke="#000000" fill="none" stroke-width="3px"></path>						<path class="family-law-01" d="      M15.32,42.171v10.845" stroke="#000000" fill="none" stroke-width="3px"></path>						<path class="family-law-01" d="      M49.91,25.875H50" stroke="#000000" fill="none" stroke-width="3px"></path>						<path class="family-law-01" d="      M31.906,53.016V41.153c0-12.922,7.339-15.278,13.57-15.278h4.433" stroke="#000000" fill="none" stroke-width="3px"></path>						<path class="family-law-01" d="      M25.785,28.891h0.09" stroke="#000000" fill="none" stroke-width="3px"></path>						<path class="family-law-01" d="      M7.781,53.016v-8.847c0-12.922,7.339-15.278,13.57-15.278h4.433" stroke="#000000" fill="none" stroke-width="3px"></path>						<path class="family-law-01" d="      M84.68,53.016V42.171" stroke="#000000" fill="none" stroke-width="3px"></path>						<path class="family-law-01" d="      M74.215,28.891h4.433c6.231,0,13.57,2.356,13.57,15.278v8.847" stroke="#000000" fill="none" stroke-width="3px"></path>						<path class="family-law-01" d="      M74.215,28.891h-0.09" stroke="#000000" fill="none" stroke-width="3px"></path>						<path class="family-law-01" d="      M68.094,53.016V41.153c0-12.922-7.339-15.278-13.57-15.278H50" stroke="#000000" fill="none" stroke-width="3px"></path>						<path class="family-law-01" d="      M60.517,39.445v13.57" stroke="#000000" fill="none" stroke-width="3px"></path>						<path class="family-law-01" d="      M50.011,25.875c-2.812,0-6.178-3.427-6.864-6.167c-0.686-2.74-0.686-6.442-0.686-6.442s0-7.539,7.539-7.539      s7.539,7.539,7.539,7.539s0,3.702-0.686,6.442c-0.686,2.74-4.052,6.167-6.864,6.167" stroke="#000000" fill="none" stroke-width="3px"></path>						<path class="family-law-01" d="      M25.886,28.891c-2.812,0-6.178-3.427-6.864-6.167c-0.686-2.74-0.686-6.442-0.686-6.442s0-7.539,7.539-7.539      c7.539,0,7.539,7.539,7.539,7.539s0,3.702-0.686,6.442c-0.686,2.74-4.052,6.167-6.864,6.167" stroke="#000000" fill="none" stroke-width="3px"></path>						<path class="family-law-01" d="      M74.136,28.891c-2.812,0-6.178-3.427-6.864-6.167c-0.686-2.74-0.686-6.442-0.686-6.442s0-7.539,7.539-7.539      s7.539,7.539,7.539,7.539s0,3.702-0.686,6.442c-0.686,2.74-4.052,6.167-6.864,6.167" stroke="#000000" fill="none" stroke-width="3px"></path>					</g>				</g>			</g>		</g>	</g></svg>