<svg xmlns="http://www.w3.org/2000/svg" xmlns:xlink="http://www.w3.org/1999/xlink" x="0px" y="0px" viewBox="0 0 100 100" style="enable-background:new 0 0 100 100;" xml:space="preserve" width="100"  height="100" >	<style>		.cri-law-0 {			fill:white;stroke:white;stroke-width:3;stroke-linecap:round;stroke-linejoin:round;		}	</style>	<g>		<g>			<path class="cri-law-0" d="   M50.012,47.492c-2.856,0-6.274-3.48-6.971-6.263c-0.697-2.783-0.697-6.542-0.697-6.542s0-7.656,7.656-7.656   s7.656,7.656,7.656,7.656s0,3.759-0.697,6.542c-0.697,2.783-4.115,6.263-6.971,6.263" stroke="#000000" fill="none" stroke-width="3px"></path>			<path class="cri-law-0" d="   M97.469,7.125H2.531v9.188h94.937V7.125z" stroke="#000000" fill="none" stroke-width="3px"></path>			<path class="cri-law-0" d="   M97.469,83.688H2.531v9.188h94.937V83.688z" stroke="#000000" fill="none" stroke-width="3px"></path>			<path class="cri-law-0" d="   M8.656,16.313v65.844" stroke="#000000" fill="none" stroke-width="3px"></path>			<path class="cri-law-0" d="   M22.438,16.313v65.844" stroke="#000000" fill="none" stroke-width="3px"></path>			<path class="cri-law-0" d="   M36.219,16.313v44.406" stroke="#000000" fill="none" stroke-width="3px"></path>			<path class="cri-law-0" d="M50,16.313   v65.844" stroke="#000000" fill="none" stroke-width="3px"></path>			<path class="cri-law-0" d="   M77.563,16.313v65.844" stroke="#000000" fill="none" stroke-width="3px"></path>			<path class="cri-law-0" d="   M91.344,16.313v65.844" stroke="#000000" fill="none" stroke-width="3px"></path>			<path class="cri-law-0" d="M42.344,50   l-7.786,1.73c-3.503,0.777-5.995,3.885-5.995,7.472v11.53c0,2.19,1.546,4.077,3.694,4.506l3.962,0.793" stroke="#000000" fill="none" stroke-width="3px"></path>			<path class="cri-law-0" d="   M28.563,65.313L32,63.023c0.754-0.502,1.642-0.773,2.549-0.773h1.673c1.692,0,3.063,1.371,3.063,3.063v1.531   c0,1.692-1.37,3.063-3.063,3.063h-1.531" stroke="#000000" fill="none" stroke-width="3px"></path>			<path class="cri-law-0" d="   M36.219,69.906v12.25" stroke="#000000" fill="none" stroke-width="3px"></path>			<path class="cri-law-0" d="   M63.781,16.313v44.406" stroke="#000000" fill="none" stroke-width="3px"></path>			<path class="cri-law-0" d="M57.656,50   l7.786,1.73c3.503,0.777,5.995,3.885,5.995,7.472v11.53c0,2.19-1.546,4.077-3.694,4.506l-3.962,0.793" stroke="#000000" fill="none" stroke-width="3px"></path>			<path class="cri-law-0" d="   M71.438,65.313L68,63.023c-0.754-0.502-1.642-0.773-2.549-0.773h-1.673c-1.692,0-3.063,1.371-3.063,3.063v1.531   c0,1.692,1.371,3.063,3.063,3.063h1.531" stroke="#000000" fill="none" stroke-width="3px"></path>			<path class="cri-law-0" d="   M63.781,69.906v12.25" stroke="#000000" fill="none" stroke-width="3px"></path>		</g>	</g></svg>