<svg xmlns="http://www.w3.org/2000/svg" xmlns:xlink="http://www.w3.org/1999/xlink" x="0px" y="0px" viewBox="0 0 100 100" style="enable-background:new 0 0 100 100;" xml:space="preserve" width="100"  height="100" >	<style fill="#FFFFFF">		.cri-law-1 {			fill:white;stroke:white;stroke-width:3;stroke-linecap:round;stroke-linejoin:round;		}	</style>	<g fill="#FFFFFF">		<path class="cri-law-1" d="M50,23.333  c-4.397,0-5.863-4.444-13.193-4.444c-8.795,0-14.659,11.852-21.988,11.852c-2.932,0-4.398-1.482-4.398-1.482" stroke="#FFFFFF" fill="none" stroke-width="3px"></path>		<path class="cri-law-1" d="M14.82,36.667L4.559,60.37" stroke="#FFFFFF" fill="none" stroke-width="3px"></path>		<path class="cri-law-1" d="M14.82,36.667L25.081,60.37  " stroke="#FFFFFF" fill="none" stroke-width="3px"></path>		<path class="cri-law-1" d="M25.081,60.37H4.559  c0,0-1.466,10.37,10.261,10.37C26.546,70.741,25.081,60.37,25.081,60.37z" stroke="#FFFFFF" fill="none" stroke-width="3px"></path>		<path class="cri-law-1" d="M50,23.333  c4.398,0,5.863-4.444,13.193-4.444c8.795,0,14.659,11.852,21.988,11.852c2.932,0,4.398-1.482,4.398-1.482" stroke="#FFFFFF" fill="none" stroke-width="3px"></path>		<path class="cri-law-1" d="M85.18,36.667L95.441,60.37  " stroke="#FFFFFF" fill="none" stroke-width="3px"></path>		<path class="cri-law-1" d="M85.18,36.667L74.919,60.37  " stroke="#FFFFFF" fill="none" stroke-width="3px"></path>		<path class="cri-law-1" d="M74.919,60.37h20.522  c0,0,1.466,10.37-10.261,10.37S74.919,60.37,74.919,60.37z" stroke="#FFFFFF" fill="none" stroke-width="3px"></path>		<path class="cri-law-1" d="M50,61.852V10" stroke="#FFFFFF" fill="none" stroke-width="3px"></path>		<path class="cri-law-1" d="M50,61.852  c0,0-4.922,16.563-16.124,22.222" stroke="#FFFFFF" fill="none" stroke-width="3px"></path>		<path class="cri-law-1" d="M50,61.852  c0,0,4.922,16.563,16.124,22.222" stroke="#FFFFFF" fill="none" stroke-width="3px"></path>		<path class="cri-law-1" d="M38.273,84.074h30.783  c1.62,0,2.932,1.326,2.932,2.963V90H28.012v-2.963c0-1.637,1.312-2.963,2.932-2.963h8.795" stroke="#FFFFFF" fill="none" stroke-width="3px"></path>	</g></svg>