<svg xmlns="http://www.w3.org/2000/svg" xmlns:xlink="http://www.w3.org/1999/xlink" x="0px" y="0px" viewBox="0 0 100 100" style="enable-background:new 0 0 100 100;" xml:space="preserve" width="100"  height="100" >	<style>		.real-law-01 {fill:white;stroke:white;stroke-width:3;stroke-linecap:round;stroke-linejoin:round;}	</style>	<g>		<g>			<g>				<g>					<g>						<g>							<path class="real-law-01" d="       M42.237,65.111c0,0,1.149-3.254,8.846-10.951c7.698-7.698,10.951-8.846,10.951-8.846" stroke="#000000" fill="none" stroke-width="3px"></path>							<path class="real-law-01" d="       M42.237,65.111l10.517,10.517" stroke="#000000" fill="none" stroke-width="3px"></path>							<path class="real-law-01" d="       M42.237,65.111l-2.101-2.105l-5.5,5.501L49.358,83.23l5.5-5.5L42.237,65.111z" stroke="#000000" fill="none" stroke-width="3px"></path>							<path class="real-law-01" d="       M72.555,55.827l2.101,2.105l5.5-5.5L65.434,37.708l-5.501,5.5l2.105,2.101" stroke="#000000" fill="none" stroke-width="3px"></path>							<path class="real-law-01" d="       M62.038,45.31l10.517,10.517" stroke="#000000" fill="none" stroke-width="3px"></path>							<path class="real-law-01" d="       M70.112,68.787l-2.201,2.197" stroke="#000000" fill="none" stroke-width="3px"></path>							<path class="real-law-01" d="       M67.911,70.984l-4.398,4.402l-4.206-4.206" stroke="#000000" fill="none" stroke-width="3px"></path>							<path class="real-law-01" d="       M70.112,68.787l2.201-2.201l-4.206-4.206" stroke="#000000" fill="none" stroke-width="3px"></path>							<path class="real-law-01" d="       M70.112,68.787l-2.201,2.197" stroke="#000000" fill="none" stroke-width="3px"></path>							<path class="real-law-01" d="       M67.911,70.984l-2.201,2.201l19.936,22.133c2.236,2.37,5.097,3.315,7.506,0.906c2.409-2.408,1.467-5.27-0.906-7.506       L70.109,68.783" stroke="#000000" fill="none" stroke-width="3px"></path>							<path class="real-law-01" d="       M52.754,75.628c0,0,3.25-1.149,10.951-8.846c7.698-7.698,8.846-10.951,8.846-10.951" stroke="#000000" fill="none" stroke-width="3px"></path>						</g>						<path class="real-law-01" d="      M20.807,14.661v76.823h52.239" stroke="#000000" fill="none" stroke-width="3px"></path>						<path class="real-law-01" d="      M20.807,14.661c0-5.09-4.129-9.219-9.219-9.219S2.37,9.572,2.37,14.661v4.609h12.292" stroke="#000000" fill="none" stroke-width="3px"></path>						<path class="real-law-01" d="      M77.656,5.443c5.09,0,9.219,4.129,9.219,9.219v59.922" stroke="#000000" fill="none" stroke-width="3px"></path>						<path class="real-law-01" d="      M11.589,5.443h66.068" stroke="#000000" fill="none" stroke-width="3px"></path>						<path class="real-law-01" d="      M30.026,23.88h47.63" stroke="#000000" fill="none" stroke-width="3px"></path>						<path class="real-law-01" d="      M30.026,31.563h47.63" stroke="#000000" fill="none" stroke-width="3px"></path>						<path class="real-law-01" d="      M30.026,39.245h21.511" stroke="#000000" fill="none" stroke-width="3px"></path>					</g>				</g>			</g>		</g>	</g></svg>