<svg xmlns="http://www.w3.org/2000/svg" xmlns:xlink="http://www.w3.org/1999/xlink" x="0px" y="0px" viewBox="0 0 100 100" style="enable-background:new 0 0 100 100;" xml:space="preserve" width="100"  height="100" >	<style>		.civil-law-01{fill:white;stroke:white;stroke-width:3;stroke-linecap:round;stroke-linejoin:round;}	</style>	<g>		<g>			<g>				<g>					<g>						<path class="civil-law-01" d="      M38.558,52.915L24.745,39.102c0,0,1.063-3.189,10.623-12.75c9.56-9.56,12.75-10.623,12.75-10.623l13.813,13.813" stroke="#000000" fill="none" stroke-width="3px"></path>						<path class="civil-law-01" d="      M22.618,36.979l-5.313,5.312l18.063,18.063l5.312-5.313L22.618,36.979z" stroke="#000000" fill="none" stroke-width="3px"></path>						<path class="civil-law-01" d="      M51.306,8.29l-5.313,5.313l18.063,18.063l5.312-5.313L51.306,8.29z" stroke="#000000" fill="none" stroke-width="3px"></path>						<path class="civil-law-01" d="      M56.619,36.98l4.252,4.249L50.244,51.856l-4.249-4.252" stroke="#000000" fill="none" stroke-width="3px"></path>						<path class="civil-law-01" d="      M94.872,85.856c-2.329,2.329-6.116,2.273-8.377-0.12l-22.434-24.32l6.375-6.375l24.32,22.434      c2.393,2.261,2.445,6.048,0.12,8.377L94.872,85.856z" stroke="#000000" fill="none" stroke-width="3px"></path>						<path class="civil-law-01" d="      M70.432,55.041L58.745,43.355l-6.375,6.375l11.686,11.687" stroke="#000000" fill="none" stroke-width="3px"></path>						<path class="civil-law-01" d="      M39.482,87.565c1.66,0,3.005,1.345,3.005,3.005v4.508H3.419V90.57c0-1.66,1.345-3.005,3.005-3.005V84.56      c0-1.66,1.345-3.005,3.005-3.005h27.047c1.661,0,3.005,1.345,3.005,3.005V87.565z" stroke="#000000" fill="none" stroke-width="3px"></path>						<path class="civil-law-01" d="      M38.558,52.915c0,0,3.189-1.063,12.75-10.623c9.56-9.56,10.623-12.75,10.623-12.75" stroke="#000000" fill="none" stroke-width="3px"></path>						<path class="civil-law-01" d="      M6.424,87.565h27.047" stroke="#000000" fill="none" stroke-width="3px"></path>					</g>				</g>			</g>		</g>	</g></svg>