<svg xmlns="http://www.w3.org/2000/svg" xmlns:xlink="http://www.w3.org/1999/xlink" x="0px" y="0px" viewBox="0 0 100 100" style="enable-background:new 0 0 100 100;" xml:space="preserve" width="100"  height="100" >	<style>		.employee-law-01 {fill:white;stroke:white;stroke-width:3;stroke-linecap:round;stroke-linejoin:round;}	</style>	<g>		<g>			<g>				<g>					<g>						<path class="employee-law-01" d="      M50.027,68.594c-6.361,0-13.973-7.748-15.522-13.945c-1.549-6.198-1.549-12.396-1.549-12.396" stroke="#000000" fill="none" stroke-width="3px"></path>						<path class="employee-law-01" d="      M39.154,62.396v9.808c0,1.499-1.069,2.781-2.545,3.049c0,0-9.851,2.638-19.148,5.737c-7.348,2.448-10.846,6.198-10.846,15.495" stroke="#000000" fill="none" stroke-width="3px"></path>						<path class="employee-law-01" d="      M49.973,68.594c6.361,0,13.973-7.748,15.522-13.945c1.55-6.198,1.55-12.396,1.55-12.396" stroke="#000000" fill="none" stroke-width="3px"></path>						<path class="employee-law-01" d="      M50,31.406c-11.857,0-18.594,3.099-18.594,3.099S35.179,40.703,50,40.703" stroke="#000000" fill="none" stroke-width="3px"></path>						<path class="employee-law-01" d="      M50,25.208c-12.396,0-18.594,3.099-18.594,3.099l-4.648-7.747l6.198-6.198C36.915,11.964,45.352,6.615,50,6.615" stroke="#000000" fill="none" stroke-width="3px"></path>						<path class="employee-law-01" d="      M50,12.813c-1.55,0-3.486,1.162-3.486,1.162v3.486c0,2.324,3.486,3.099,3.486,3.099s3.486-0.775,3.486-3.099v-3.486      C53.486,13.975,51.55,12.813,50,12.813z" stroke="#000000" fill="none" stroke-width="3px"></path>						<path class="employee-law-01" d="      M31.406,28.307v6.198" stroke="#000000" fill="none" stroke-width="3px"></path>						<path class="employee-law-01" d="      M50,31.406c11.857,0,18.594,3.099,18.594,3.099S64.821,40.703,50,40.703" stroke="#000000" fill="none" stroke-width="3px"></path>						<path class="employee-law-01" d="      M50,25.208c12.396,0,18.594,3.099,18.594,3.099l4.648-7.747l-6.198-6.198C63.085,11.964,54.648,6.615,50,6.615" stroke="#000000" fill="none" stroke-width="3px"></path>						<path class="employee-law-01" d="      M68.594,28.307v6.198" stroke="#000000" fill="none" stroke-width="3px"></path>						<path class="employee-law-01" d="      M42.252,77.891L50,84.089l7.748-6.198" stroke="#000000" fill="none" stroke-width="3px"></path>						<path class="employee-law-01" d="      M32.956,82.539l9.297,9.297L50,84.089" stroke="#000000" fill="none" stroke-width="3px"></path>						<path class="employee-law-01" d="      M60.846,63.945v8.259c0,1.499,1.069,2.781,2.545,3.049c0,0,9.851,2.638,19.148,5.737c7.348,2.448,10.846,6.198,10.846,15.495" stroke="#000000" fill="none" stroke-width="3px"></path>						<path class="employee-law-01" d="      M67.044,82.539l-9.297,9.297L50,84.089" stroke="#000000" fill="none" stroke-width="3px"></path>						<path class="employee-law-01" d="      M19.7,94.706h10.846" stroke="#000000" fill="none" stroke-width="3px"></path>						<path class="employee-law-01" d="      M80.3,94.706H69.454" stroke="#000000" fill="none" stroke-width="3px"></path>					</g>				</g>			</g>		</g>	</g></svg>